# xmcd
#
# Track frame offsets:
#	183
#	14960
#	29623
#	59898
#	79660
#	91125
#	111538
#	138233
#	158203
#	172325
#	197720
#	210618
#
# Disc length: 3128 seconds
#
# Revision: 2
# Processed by: cddbd v1.5.2PL0 Copyright (c) Steve Scherf et al.
# Submitted via: audiograbber 1.83.01
#
DISCID=b60c360c
DTITLE=Big Jay McNeely and Christian Rannenberg - Blues At Daybreak
DYEAR=1992
DGENRE=Blues
TTITLE0=J. R. Boogie
TTITLE1=Catfish, Greens And Mashed Potatoes
TTITLE2=So Hard To Be In Love
TTITLE3=Tennessee Shuffle
TTITLE4=Car Crash
TTITLE5=Big Fat Mama
TTITLE6=Blues At Daybreak
TTITLE7=The Claps
TTITLE8=Rock 'n' Roll And Boogie Woogie All Night Long
TTITLE9=Jive Turkey
TTITLE10=Let The Back Door Hit You
TTITLE11=I Believe In Love
EXTD=
EXTT0=(McNeely/Rannenberg)
EXTT1=(McNeely/Rannenberg)
EXTT2=(McNeely)
EXTT3=(McNeely/Rannenberg)
EXTT4=(McNeely/Rannenberg)
EXTT5=(McNeely)
EXTT6=(McNeely/Rannenberg)
EXTT7=(McNeely/Rannenberg)
EXTT8=(McNeely/Rannenberg)
EXTT9=(McNeely/Rannenberg)
EXTT10=(Harrison Nelson)
EXTT11=(Brown/McNeely/Rannenberg)
PLAYORDER=
